<svg width="614" height="614" viewBox="0 0 614 614" fill="none" xmlns="http://www.w3.org/2000/svg">
<rect width="614" height="614" rx="180" fill="#010101"/>
<path d="M442.724 151.031C442.662 150.813 443.528 151.459 443.66 151.407C444.221 151.197 444.888 151.578 445.534 151.527C446.493 151.452 447.034 148.922 452.29 154.179C452.291 154.179 452.291 154.179 452.291 154.179C452.342 154.231 452.394 154.283 452.447 154.336C453.443 155.343 454.406 156.567 455.519 157.719C456.633 158.871 463.962 166.171 464.187 166.768C464.46 167.579 461.94 166.348 461.88 166.575C461.839 166.73 462.383 167.516 462.376 167.759C462.352 168.544 461.655 168.269 463.097 170.439C461.999 169.633 460.902 168.827 459.804 168.021C460.055 168.652 458.512 167.685 458.466 167.869C458.428 168.021 459.125 168.829 459.061 168.963C458.994 169.117 458.012 168.475 457.933 168.798C457.799 169.325 459.704 171.348 459.755 171.795C459.808 172.259 458.421 171.511 458.85 172.464C459.033 172.713 459.216 172.962 459.4 173.211C459.912 173.676 460.424 174.14 460.936 174.605C461.031 174.965 459.973 174.02 459.834 174.124C459.669 174.245 460.546 175.267 460.445 175.358C460.362 175.432 459.494 174.778 459.44 174.928C459.357 175.142 460.488 176.208 460.614 176.494C460.662 176.606 460.678 177.803 460.653 177.845C460.443 178.141 458.917 176.659 458.583 176.73C457.664 176.932 458.305 178.722 458.246 179.7C458.22 180.136 457.891 180.291 457.42 180.281C453.934 176.068 450.133 173.876 456.458 179.599C455.344 178.999 456.788 180.807 456.27 180.775C455.933 180.753 454.989 180.027 454.786 180.274C454.431 180.717 456.369 183.527 451.963 179.351C452.252 180.575 450.29 179.424 453.909 183.381C454.02 183.733 451.454 181.786 451.012 181.615C450.595 181.455 448.594 181.418 448.376 181.522C448.159 181.626 447.815 181.846 448.012 182.313C448.253 182.895 452.063 186.942 447.167 182.652C447.187 183.375 446.93 183.369 446.069 183.163C445.913 183.126 445.224 182.451 445.189 182.485C445.118 182.556 445.5 183.182 445.434 183.37C445.326 183.68 443.771 182.365 445.986 184.533C446.215 185.039 446.445 185.544 446.674 186.05C446.203 185.675 445.731 185.301 445.26 184.926C445.647 185.461 446.034 185.996 446.421 186.531C443.337 183.272 444.689 185.664 446.677 187.315C445.753 186.926 444.83 186.538 443.906 186.149C440.339 182.508 442.902 186.321 444.915 188.228C444.881 188.256 444.848 188.284 444.814 188.312C443.588 187.622 444.125 188.652 443.155 188.335C442.186 188.019 441.865 187.637 440.108 186.079C440.126 186.251 440.144 186.423 440.162 186.594C444.304 191.543 436.506 183.603 439.301 187.78C436.224 185.144 437.18 187.189 437.686 188.416C437.744 188.559 438.298 189.114 438.413 189.341C438.687 189.889 437.626 189.525 439.426 191.301C438.788 190.904 438.15 190.508 437.512 190.111C437.738 190.535 437.964 190.959 438.191 191.383C438.75 191.941 439.309 192.498 439.867 193.056C437.766 191.352 438.185 192.396 437.576 192.095C437.453 192.033 436.676 191.27 436.371 191.155C436.01 191.017 436.03 191.452 435.657 191.345C436.458 192.249 437.26 193.154 438.061 194.059C438.287 194.759 435.952 192.591 435.637 192.555C435.582 192.55 435.286 193.169 435.309 193.242C435.488 193.825 437.464 195.686 436.469 195.859C436.29 195.889 435.543 195.309 435.422 195.377C435.208 195.495 436.213 197.501 437.565 198.931C435.622 197.391 435.795 198.642 435.133 198.298C434.93 198.191 433.811 197.093 433.427 197.004C433.115 196.931 433.696 198.126 433.396 198.129C433.073 198.128 432.084 197.254 431.946 197.26C431.817 197.267 432.506 198.082 432.409 198.17C432.094 198.433 430.621 197.485 430.37 197.691C430.004 197.987 431.939 200.506 432.651 201.771C432.438 201.696 431.892 201.285 431.816 201.353C430.855 202.174 429.439 202.769 428.069 203.186C427.435 203.382 423.381 201.391 428.699 206.159C429.438 207.186 426.356 206.201 426.126 206.37C425.897 206.539 426.643 207.601 426.499 207.771C426.066 208.284 425.081 207.965 425.293 209.328C425.35 209.683 426.262 210.913 426.162 210.989C426.038 211.077 424.888 210.155 424.685 210.227C424.209 210.406 423.939 211.357 423.446 211.492C423.353 211.514 422.423 210.624 422.057 210.422C420.627 209.631 420.365 210.085 423.333 212.926C421.274 211.687 422.4 213.57 422.112 214.041C421.498 215.032 419.358 215.815 419.88 217.735C420.209 218.946 421.523 220.237 419.75 219.762C419.357 219.657 418.877 219.464 418.405 219.341C417.296 219.051 414.513 217.02 417.101 220.232C415.894 219.935 416.065 220.83 413.248 218.688C413.803 219.322 414.358 219.957 414.913 220.591C414.872 220.662 414.831 220.732 414.79 220.803C414.205 220.253 413.62 219.703 413.036 219.153C412.483 219.4 414.308 222.238 413.953 222.56C413.36 223.1 410.994 223.655 409.691 223.427C408.999 223.305 410.198 224.536 407.537 222.202C407.647 222.439 407.757 222.677 407.867 222.914C408.374 223.501 408.881 224.088 409.388 224.675C409.044 225.063 407.76 224.648 407.42 225.005C406.802 225.658 407.352 228.118 405.725 227.768C405.316 227.679 403.988 226.751 403.844 226.92C403.633 227.166 405.45 229.093 405.195 229.417C404.753 229.973 401.65 228.728 401.344 229.366C401.253 229.554 401.884 230.316 401.861 230.487C401.775 231.212 401.385 231.488 402.073 232.953C399.862 231.577 397.583 229.226 395.117 227.019C393.256 225.354 388.869 221.569 387.283 220.068C386.168 219.013 384.884 217.505 383.648 216.353C383.195 214.899 384.455 215.739 386.541 217.012C387.224 216.195 387.907 215.378 388.59 214.561C389.31 215.145 390.03 215.728 390.75 216.312C390.752 216.313 390.753 216.315 390.755 216.316C391.795 216.78 390.238 214.98 390.013 214.443C387.852 209.307 393.635 209.235 395.683 208.009C396.124 207.744 396.393 205.718 397.694 206.534C398.032 206.747 399.055 207.735 399.165 207.712C399.163 206.518 399.162 205.325 399.16 204.131C401.947 204.468 401.924 201.911 402.918 200.436C405.606 196.444 408.121 192.345 411.647 189.3C412.33 188.713 412.383 187.154 413.49 187.018C413.951 186.96 415.673 188.466 414.811 186.922C415.249 187.353 415.688 187.785 416.126 188.216C415.898 187.394 415.099 186.214 415.332 185.78C415.53 185.416 416.208 184.609 416.622 184.527C416.834 184.481 417.599 185.342 417.715 185.217C417.907 184.999 417.223 183.437 417.506 183.153C417.763 182.896 419.132 183.399 419.194 183.066C419.423 181.874 418.81 179.712 419.94 179.326C420.254 179.222 421.577 180.007 421.613 179.912C421.68 179.722 420.695 178.661 420.649 178.443C420.421 177.341 422.318 177.877 422.795 177.497C424.348 176.259 425.379 174.334 426.957 173.133C427.952 172.373 429.231 170.734 430.811 170.694C431.152 170.685 432.227 171.853 432.374 171.706C432.536 171.543 431.867 170.698 431.882 170.561C431.979 169.606 432.375 167.678 433.646 167.955C433.89 168.01 434.837 168.819 434.89 168.76C434.919 168.731 434.384 168.067 434.413 167.915C434.666 166.578 435.595 166.348 436.58 165.774C438.461 164.671 439.074 161.827 441.245 160.864C441.718 160.653 443.69 162.157 443.721 162.091C443.791 161.951 442.69 160.715 442.614 160.212C442.375 158.554 444.578 158.845 444.667 157.584C444.712 156.962 443.686 155.02 443.686 154.364C443.686 153.839 444.887 153.802 444.351 153.035C444.029 152.571 442.797 151.274 442.724 151.031ZM453.571 179.538C451.597 177.47 452.786 179.64 454.055 180.541C454.34 180.744 454.084 180.074 453.571 179.538ZM427.084 199.006C427.666 199.579 428.248 200.152 428.829 200.725C428.654 200.42 428.478 200.115 428.302 199.811C427.919 199.5 427.535 199.189 427.152 198.878C427.129 198.921 427.107 198.963 427.084 199.006ZM375.654 237.073C375.456 236.778 376.526 236.361 376.582 236.013C376.83 234.554 377.572 234.013 377.992 232.693C378.617 230.735 377.211 224.925 384.645 224.925C384.645 224.925 384.645 224.925 384.645 224.925C384.718 224.925 384.792 224.925 384.867 224.927C386.283 224.947 387.829 225.441 389.431 225.514C391.033 225.588 401.377 225.533 401.959 226.235C402.725 227.252 400.073 229.694 400.19 230.236C400.271 230.607 401.212 231.064 401.379 231.539C401.917 233.069 401.229 233.869 403.784 235.247C402.438 235.799 401.091 236.35 399.745 236.901C400.37 237.621 398.594 238.711 398.692 239.148C398.772 239.506 399.837 239.717 399.886 240.09C399.948 240.509 398.799 241.153 398.972 241.915C399.25 243.165 402.027 243.387 402.38 244.137C402.745 244.915 401.236 246.124 402.213 247.116C402.518 247.241 402.824 247.365 403.129 247.49C403.82 247.4 404.511 247.311 405.202 247.222C405.523 247.722 404.107 247.937 404.082 248.396C404.051 248.936 405.393 249.212 405.387 249.575C405.381 249.873 404.304 250.277 404.372 250.663C404.465 251.226 406.019 251.103 406.31 251.406C406.422 251.527 407.28 253.762 407.292 253.888C407.354 254.847 405.227 254.931 405.041 255.695C404.533 257.816 406.252 259.993 406.902 261.955C407.192 262.831 407.069 263.745 406.728 264.618C401.285 263.242 397.048 266.287 405.566 265.148C404.354 266.12 406.654 266.809 406.265 267.73C406.012 268.326 404.83 268.739 404.861 269.59C404.924 271.099 408.281 272.751 402.213 273.185C403.283 274.957 401.081 276.492 406.438 277.131C406.766 277.588 403.575 278.759 403.141 279.271C402.733 279.756 401.292 283.476 401.212 284.084C401.131 284.692 401.044 285.758 401.514 286.27C402.095 286.914 407.651 287.364 401.155 288.51C401.681 289.843 401.495 290.318 400.74 291.557C400.604 291.782 399.639 291.807 399.639 291.938C399.639 292.208 400.351 292.668 400.438 293.15C400.581 293.942 398.551 294.395 401.651 294.307C402.17 294.829 402.69 295.352 403.21 295.874C402.612 296.058 402.013 296.241 401.415 296.425C402.067 296.704 402.719 296.983 403.371 297.263C398.886 296.935 401.532 298.901 404.106 298.263C403.178 299.276 402.25 300.289 401.322 301.302C396.225 301.161 400.734 303.527 403.506 303.328C403.502 303.444 403.498 303.56 403.494 303.676C402.139 304.69 403.247 305.623 402.338 306.86C401.428 308.097 400.932 307.981 398.587 308.357C398.721 308.648 398.856 308.939 398.99 309.23C405.418 310.758 394.289 310.488 399.22 313.103C395.18 313.939 397.302 315.999 398.527 317.365C398.669 317.524 399.453 317.526 399.695 317.738C400.276 318.256 399.268 319.576 401.798 319.531C401.066 319.988 400.334 320.445 399.602 320.902C400.062 321.276 400.522 321.65 400.982 322.023C401.772 322.021 402.561 322.02 403.351 322.018C400.66 322.77 401.694 323.952 401.051 324.535C400.92 324.651 399.831 324.677 399.534 325.037C399.181 325.459 399.504 326.245 399.163 326.747C400.37 326.942 401.576 327.138 402.783 327.333C403.437 328.231 400.253 328.547 400.005 329.075C399.962 329.17 400.191 330.903 400.259 330.996C400.798 331.761 403.511 331.544 402.93 333.755C402.825 334.149 401.886 334.467 401.848 334.823C401.78 335.452 403.909 337.346 405.876 337.495C403.414 338.258 404.421 340.298 403.709 340.898C403.491 341.08 401.922 341.121 401.588 341.678C401.316 342.13 402.572 343.294 402.362 343.867C402.133 344.475 400.815 344.693 400.722 344.965C400.636 345.223 401.699 345.46 401.693 345.811C401.656 346.907 399.944 347.899 399.913 348.765C399.863 350.017 403.012 351.123 404.41 352.171C404.206 352.431 403.53 352.687 403.524 352.959C403.425 356.332 402.845 360.137 402.17 363.52C401.861 365.091 397.586 368.996 404.718 367.954C405.967 368.499 403.092 372.468 403.049 373.223C403.006 373.977 404.285 374.576 404.303 375.169C404.359 376.959 403.438 378.219 404.551 380.398C404.842 380.961 406.357 381.564 406.34 381.897C406.315 382.299 404.85 382.731 404.757 383.251C404.546 384.49 405.028 386.8 404.775 387.989C404.725 388.207 403.439 388.283 403.037 388.593C401.465 389.803 401.602 391.158 405.709 390.918C403.377 392.468 405.504 393.902 405.635 395.339C405.901 398.376 404.942 403.909 406.668 406.555C407.757 408.223 409.599 408.18 408.009 410.637C407.657 411.182 407.181 411.725 406.761 412.386C405.771 413.936 402.367 415.358 406.469 416.54C405.405 418.262 406.159 419.633 402.652 420.91C403.493 421.061 404.334 421.211 405.176 421.362C405.196 421.573 405.217 421.784 405.238 421.995C404.436 422.061 403.633 422.127 402.831 422.193C402.615 423.705 405.913 425.623 405.889 426.903C405.851 429.049 404.57 434.577 403.488 436.612C402.913 437.692 404.631 437.75 401.099 438.368C401.345 438.61 401.59 438.852 401.836 439.093C402.609 439.245 403.383 439.396 404.156 439.547C404.187 440.933 402.986 442.577 402.998 443.897C403.023 446.304 405.152 449.917 403.754 452.333C403.401 452.939 401.806 453.696 401.824 454.289C401.849 455.153 404.496 455.363 404.545 456.458C404.626 458.347 401.551 461.864 401.786 463.649C401.854 464.179 402.839 464.426 402.944 464.792C403.395 466.327 403.315 467.588 404.837 469.06C402.301 470.64 399.027 470.504 395.723 470.993C393.23 471.365 387.451 472.503 385.268 472.664C383.733 472.778 381.76 472.354 380.071 472.513C378.722 470.62 380.207 469.824 382.583 468.287C382.488 465.447 382.393 462.608 382.299 459.768C383.22 459.51 384.142 459.251 385.064 458.993C385.066 458.993 385.068 458.993 385.07 458.993C386.134 457.903 383.76 457.44 383.221 456.852C378.062 451.222 382.1 440.141 382.681 433.942C382.805 432.607 381.563 428.262 383.06 427.345C383.45 427.108 384.871 427.042 384.933 426.79C384.088 424.534 383.243 422.279 382.397 420.024C384.606 415.386 382.782 410.591 382.442 405.918C381.52 393.274 380.399 380.756 380.74 368.319C380.808 365.916 379.743 362.866 380.43 360.513C380.714 359.531 382.997 359.121 381.296 357.831C381.911 357.818 382.526 357.804 383.141 357.791C382.398 356.665 380.999 355.945 380.857 354.683C380.739 353.62 380.648 350.808 380.883 349.869C381 349.381 382.149 349.563 382.144 349.109C382.125 348.331 380.536 346.67 380.536 345.597C380.536 344.625 381.86 342.986 381.668 342.239C380.988 339.547 379.025 336.616 379.551 333.748C379.7 332.955 381.19 331.936 381.149 331.688C381.062 331.204 379.615 331.059 379.428 330.734C378.488 329.08 380.208 326.502 380.276 324.881C380.499 319.6 379.867 314.004 380.133 308.745C380.3 305.423 380.046 299.901 381.134 296.834C381.37 296.172 382.955 296.349 382.955 295.793C382.955 295.177 381.884 294.844 381.797 294.556C381.191 292.564 380.108 288.166 381.203 286.285C381.413 285.927 382.656 285.667 382.651 285.453C382.651 285.344 381.803 285.099 381.717 284.758C380.949 281.748 381.444 279.554 381.735 276.605C382.285 270.957 380.708 264.413 381.561 258.48C381.747 257.188 384.205 256.301 384.18 256.12C384.13 255.721 382.477 255.465 382.069 254.657C380.727 251.971 382.491 248.354 381.662 245.799C381.254 244.537 379.156 242.802 378.691 241.56C378.32 240.568 379.143 238.225 378.222 237.785C377.665 237.517 375.878 237.394 375.654 237.073ZM403.482 270.496C400.623 270.319 402.999 272.177 404.533 271.48C404.878 271.323 404.224 270.542 403.482 270.496ZM398.519 357.473C399.335 357.456 400.152 357.439 400.968 357.422C400.628 357.178 400.289 356.934 399.949 356.691C399.458 356.828 398.967 356.965 398.476 357.102C398.491 357.226 398.505 357.349 398.519 357.473ZM162.511 223.786C162.209 223.961 161.887 222.863 161.554 222.781C160.159 222.426 159.692 221.646 158.444 221.128C156.595 220.359 150.856 221.328 151.426 213.916C151.426 213.916 151.426 213.916 151.426 213.915C151.432 213.843 151.438 213.769 151.445 213.695C151.573 212.284 152.17 210.78 152.364 209.188C152.558 207.596 153.298 197.278 154.023 196.751C155.068 196.062 157.231 198.889 157.766 198.812C158.132 198.759 158.647 197.856 159.12 197.724C160.644 197.302 161.367 198.047 162.898 195.603C163.33 196.986 163.761 198.37 164.192 199.753C164.937 199.184 165.857 201.036 166.288 200.971C166.642 200.917 166.927 199.872 167.293 199.85C167.704 199.82 168.24 201.014 168.992 200.898C170.225 200.713 170.653 197.961 171.407 197.666C172.189 197.36 173.245 198.955 174.281 198.054C174.425 197.759 174.569 197.464 174.713 197.168C174.68 196.473 174.647 195.778 174.613 195.082C175.122 194.799 175.222 196.226 175.665 196.286C176.186 196.357 176.556 195.039 176.908 195.073C177.197 195.101 177.505 196.204 177.885 196.166C178.438 196.115 178.437 194.557 178.753 194.289C178.879 194.186 181.111 193.497 181.234 193.494C182.168 193.505 182.086 195.632 182.813 195.874C184.83 196.538 187.071 194.987 189.023 194.485C189.894 194.261 190.77 194.452 191.591 194.857C189.84 200.182 192.466 204.633 192.015 196.055C192.864 197.336 193.709 195.094 194.572 195.551C195.13 195.848 195.439 197.056 196.266 197.089C197.734 197.139 199.592 193.915 199.547 199.998C201.347 199.063 202.666 201.373 203.696 196.079C204.164 195.787 205.054 199.055 205.518 199.526C205.956 199.969 209.45 201.683 210.034 201.809C210.618 201.934 211.643 202.101 212.176 201.67C212.844 201.138 213.707 195.633 214.319 202.195C215.651 201.77 216.097 201.991 217.241 202.836C217.448 202.988 217.398 203.952 217.525 203.963C217.787 203.983 218.287 203.306 218.761 203.256C219.54 203.173 219.823 205.23 219.975 202.133C220.522 201.654 221.068 201.175 221.615 200.695C221.746 201.306 221.878 201.916 222.01 202.526C222.331 201.897 222.652 201.267 222.973 200.638C222.31 205.086 224.42 202.593 223.998 199.98C224.909 200.98 225.82 201.981 226.731 202.982C226.203 208.054 228.842 203.734 228.861 200.956C228.973 200.969 229.085 200.981 229.197 200.994C230.077 202.42 231.065 201.385 232.195 202.384C233.324 203.383 233.173 203.869 233.358 206.235C233.65 206.123 233.943 206.011 234.235 205.898C236.209 199.603 235.093 210.679 238.007 205.958C238.507 210.048 240.666 208.086 242.084 206.967C242.249 206.837 242.312 206.055 242.535 205.83C243.082 205.289 244.284 206.392 244.434 203.867C244.821 204.631 245.208 205.394 245.595 206.158C245.993 205.727 246.39 205.297 246.787 204.866C246.846 204.079 246.905 203.291 246.964 202.504C247.486 205.243 248.711 204.3 249.227 204.985C249.33 205.124 249.271 206.212 249.597 206.535C249.979 206.918 250.765 206.655 251.226 207.032C251.508 205.843 251.79 204.655 252.072 203.467C252.993 202.881 253.054 206.08 253.547 206.366C253.636 206.416 255.333 206.317 255.429 206.256C256.211 205.776 256.209 203.055 258.307 203.799C258.681 203.933 258.917 204.893 259.259 204.957C259.864 205.072 261.863 203.09 262.158 201.14C262.708 203.651 264.763 202.8 265.29 203.554C265.449 203.786 265.369 205.353 265.883 205.727C266.301 206.032 267.525 204.867 268.064 205.119C268.636 205.393 268.746 206.722 269.003 206.836C269.246 206.941 269.558 205.898 269.897 205.931C270.956 206.049 271.786 207.83 272.623 207.926C273.833 208.069 275.147 205.012 276.27 203.696C276.506 203.919 276.702 204.612 276.966 204.638C280.227 204.988 283.87 205.85 287.097 206.775C288.596 207.201 292.053 211.754 291.59 204.565C292.215 203.36 295.84 206.523 296.569 206.623C297.297 206.722 297.975 205.491 298.551 205.517C300.29 205.595 301.441 206.607 303.638 205.66C304.206 205.411 304.907 203.946 305.228 203.988C305.615 204.043 305.922 205.536 306.419 205.667C307.604 205.969 309.88 205.661 311.013 206.003C311.22 206.068 311.195 207.357 311.465 207.781C312.517 209.438 313.841 209.403 313.923 205.289C315.247 207.73 316.8 205.716 318.202 205.693C321.166 205.654 326.455 207.023 329.152 205.499C330.852 204.538 330.952 202.698 333.211 204.466C333.712 204.858 334.202 205.373 334.811 205.841C336.237 206.944 337.354 210.443 338.814 206.442C340.401 207.631 341.788 206.981 342.757 210.574C342.968 209.746 343.178 208.919 343.388 208.091C343.595 208.086 343.801 208.081 344.007 208.076C344.009 208.881 344.012 209.686 344.014 210.491C345.463 210.819 347.575 207.674 348.814 207.793C350.891 207.99 356.15 209.68 358.039 210.911C359.042 211.565 359.23 209.856 359.559 213.424C359.812 213.197 360.065 212.97 360.318 212.743C360.524 211.983 360.73 211.223 360.936 210.463C362.281 210.535 363.782 211.856 365.063 211.942C367.397 212.097 371.062 210.244 373.297 211.818C373.857 212.215 374.468 213.861 375.045 213.888C375.884 213.927 376.29 211.304 377.356 211.336C379.192 211.397 382.365 214.725 384.113 214.624C384.632 214.595 384.948 213.632 385.31 213.554C386.833 213.218 388.048 213.392 389.591 211.984C390.929 214.631 390.545 217.885 390.767 221.216C390.935 223.73 391.595 229.576 391.584 231.765C391.577 233.303 391.015 235.24 391.039 236.935C389.1 238.139 388.443 236.599 387.135 234.116C384.376 233.998 381.617 233.881 378.857 233.764C378.678 232.826 378.498 231.887 378.318 230.949C378.319 230.947 378.319 230.945 378.319 230.943C377.344 229.801 376.714 232.133 376.102 232.627C370.25 237.351 359.819 232.499 353.856 231.457C352.571 231.234 348.265 232.149 347.492 230.588C347.292 230.181 347.337 228.759 347.097 228.678C344.846 229.353 342.595 230.028 340.344 230.702C336.019 228.154 331.232 229.616 326.676 229.606C314.351 229.583 302.133 229.767 290.105 228.5C287.781 228.253 284.743 229.088 282.515 228.228C281.585 227.87 281.364 225.564 279.983 227.164C280.017 226.55 280.051 225.936 280.085 225.322C278.937 225.978 278.132 227.319 276.898 227.367C275.859 227.405 273.126 227.287 272.234 226.982C271.77 226.829 272.035 225.696 271.594 225.668C270.839 225.629 269.107 227.089 268.067 227.009C267.125 226.937 265.638 225.495 264.899 225.63C262.238 226.108 259.246 227.846 256.507 227.108C255.75 226.9 254.877 225.339 254.633 225.362C254.157 225.412 253.906 226.844 253.576 227.006C251.901 227.82 249.535 225.913 247.969 225.724C242.867 225.108 237.396 225.321 232.319 224.663C229.112 224.249 223.741 224.091 220.851 222.777C220.228 222.493 220.521 220.926 219.982 220.884C219.385 220.839 218.98 221.882 218.694 221.947C216.717 222.403 212.372 223.154 210.633 221.922C210.302 221.686 210.145 220.428 209.937 220.416C209.832 220.408 209.529 221.235 209.192 221.296C206.216 221.837 204.127 221.18 201.292 220.671C195.86 219.701 189.397 220.785 183.712 219.492C182.473 219.211 181.802 216.694 181.624 216.705C181.234 216.725 180.86 218.354 180.045 218.701C177.339 219.839 173.968 217.81 171.428 218.446C170.174 218.759 168.332 220.722 167.092 221.092C166.102 221.388 163.894 220.393 163.397 221.279C163.096 221.814 162.838 223.587 162.511 223.786ZM197.038 198.532C196.648 201.369 198.63 199.139 198.073 197.557C197.947 197.201 197.14 197.796 197.038 198.532ZM280.957 209.965C281.003 209.15 281.049 208.335 281.095 207.519C280.833 207.84 280.57 208.16 280.308 208.481C280.403 208.98 280.498 209.48 280.593 209.98C280.714 209.975 280.835 209.97 280.957 209.965ZM415.217 469.686C415.13 470.124 413.938 469.919 413.606 470.258C412.205 471.674 411.171 471.802 409.748 472.963C407.637 474.683 403.957 481.777 398.063 477.246C398.063 477.246 398.063 477.246 398.063 477.246C398.005 477.201 397.947 477.156 397.889 477.109C396.783 476.224 395.965 474.751 394.756 473.696C393.546 472.641 385.3 466.395 385.418 465.287C385.65 463.727 389.768 462.724 390.123 462.069C390.365 461.622 389.996 460.558 390.255 459.947C391.091 457.977 392.297 457.537 391.41 454.5C392.932 454.729 394.454 454.958 395.976 455.186C396.075 454.034 398.382 453.946 398.665 453.417C398.898 452.983 398.227 452.109 398.496 451.677C398.793 451.19 400.235 451.2 400.727 450.276C401.538 448.765 399.52 446.833 399.86 445.813C400.212 444.756 402.406 444.378 402.451 442.718C402.311 442.398 402.172 442.078 402.032 441.758C401.411 441.433 400.79 441.108 400.168 440.782C400.326 440.05 401.626 440.682 402.025 440.205C402.495 439.644 401.659 438.53 401.964 438.143C402.215 437.827 403.401 438.05 403.666 437.594C404.057 436.933 402.724 436.118 402.743 435.616C402.754 435.417 403.918 432.495 404.012 432.353C404.755 431.286 406.511 432.493 407.289 431.785C409.441 429.818 409.876 426.434 410.98 423.932C411.472 422.814 412.325 421.909 413.315 421.179C416.496 425.974 422.367 425.288 414.674 421.318C416.437 421.013 415.182 418.872 416.251 418.12C416.944 417.635 418.221 417.913 418.898 416.98C420.095 415.322 418.796 411.503 423.965 414.736C424.58 412.181 427.592 411.875 423.872 407.924C423.989 407.234 427.486 407.922 428.252 407.636C428.976 407.365 433.188 404.251 433.754 403.647C434.32 403.042 435.268 401.952 435.319 401.116C435.389 400.07 431.356 396.201 437.451 398.93C438.135 397.179 438.674 396.783 440.295 395.912C440.589 395.754 441.374 396.315 441.483 396.175C441.706 395.885 441.52 394.957 441.849 394.387C442.39 393.449 444.373 394.2 441.842 392.406C441.862 391.528 441.881 390.651 441.901 389.773C442.526 389.941 443.152 390.108 443.777 390.276C443.491 389.579 443.205 388.882 442.919 388.184C446.204 391.27 445.728 387.546 443.161 386.663C444.733 386.141 446.305 385.619 447.876 385.097C451.801 388.356 450.179 383.068 447.817 381.592C447.916 381.47 448.015 381.348 448.114 381.226C448.468 381.177 448.752 381.08 448.992 380.949L446.746 387.554C447.233 386.454 446.634 385.363 447.375 383.998C448.284 382.323 448.781 382.48 451.125 381.971C450.991 381.577 450.857 381.182 450.722 380.788C444.295 378.72 455.423 379.086 450.493 375.544C454.533 374.413 452.411 371.623 451.186 369.774C451.043 369.559 450.259 369.555 450.017 369.268C449.436 368.568 450.444 366.78 447.915 366.841C448.646 366.222 449.378 365.603 450.11 364.984C449.65 364.478 449.19 363.972 448.73 363.466C447.941 363.469 447.151 363.471 446.362 363.474C449.053 362.455 448.019 360.854 448.662 360.065C448.792 359.908 449.882 359.874 450.179 359.385C450.531 358.814 450.209 357.751 450.549 357.07C449.343 356.806 448.136 356.541 446.93 356.277C446.275 355.06 449.46 354.633 449.707 353.918C449.75 353.79 449.522 351.443 449.453 351.317C448.915 350.282 446.202 350.575 446.783 347.581C446.888 347.048 447.827 346.617 447.864 346.135C447.932 345.284 445.803 342.719 443.836 342.518C446.298 341.485 445.292 338.723 446.003 337.909C446.222 337.664 447.79 337.608 448.124 336.854C448.396 336.242 447.141 334.666 447.351 333.89C447.58 333.066 448.897 332.772 448.99 332.403C449.077 332.054 448.013 331.733 448.019 331.257C448.057 329.774 449.768 328.431 449.8 327.258C449.849 325.563 446.7 324.065 445.302 322.646C445.506 322.294 446.182 321.948 446.189 321.579C446.288 317.012 446.868 311.86 447.542 307.28C447.852 305.153 452.126 299.865 444.994 301.277C443.745 300.538 446.621 295.164 446.664 294.142C446.707 293.12 445.428 292.31 445.409 291.507C445.353 289.084 446.275 287.377 445.161 284.427C444.87 283.665 443.355 282.848 443.373 282.397C443.397 281.854 444.863 281.269 444.956 280.564C445.166 278.886 444.684 275.758 444.938 274.148C444.987 273.854 446.274 273.751 446.676 273.33C448.247 271.693 448.111 269.857 444.003 270.182C446.335 268.083 444.208 266.142 444.078 264.197C443.812 260.085 444.77 252.593 443.044 249.011C441.956 246.752 440.113 246.81 441.703 243.484C442.056 242.745 442.531 242.01 442.952 241.115C443.942 239.016 447.345 237.091 443.244 235.491C444.308 233.16 443.553 231.303 447.061 229.573C446.219 229.369 445.378 229.166 444.537 228.962C444.516 228.676 444.495 228.39 444.474 228.104C445.277 228.015 446.079 227.926 446.881 227.837C447.097 225.789 443.8 223.192 443.824 221.459C443.861 218.553 445.142 211.069 446.225 208.314C446.8 206.851 445.081 206.772 448.614 205.935C448.368 205.607 448.122 205.28 447.876 204.953C447.103 204.748 446.33 204.544 445.556 204.339C445.525 202.462 446.727 200.236 446.714 198.448C446.689 195.191 444.561 190.299 445.959 187.027C446.311 186.207 447.906 185.181 447.888 184.378C447.864 183.209 445.217 182.925 445.167 181.441C445.087 178.884 448.162 174.122 447.927 171.705C447.859 170.987 446.874 170.652 446.769 170.157C446.317 168.078 446.397 166.372 444.875 164.379C447.412 162.239 450.686 162.424 453.989 161.761C456.483 161.258 462.261 159.717 464.445 159.498C465.979 159.344 467.953 159.918 469.641 159.703C470.99 162.267 469.505 163.344 467.13 165.426C467.224 169.27 467.319 173.115 467.414 176.96C466.492 177.309 465.57 177.659 464.648 178.009C464.646 178.009 464.644 178.009 464.642 178.009C463.578 179.485 465.952 180.111 466.491 180.907C471.651 188.531 467.613 203.535 467.031 211.928C466.907 213.736 468.15 219.619 466.652 220.86C466.263 221.181 464.841 221.271 464.779 221.612C465.625 224.666 466.47 227.72 467.315 230.774C465.107 237.054 466.931 243.546 467.271 249.873C468.193 266.993 469.313 283.942 468.973 300.781C468.905 304.036 469.97 308.166 469.283 311.352C468.998 312.681 466.716 313.235 468.417 314.982C467.802 315 467.187 315.019 466.572 315.037C467.314 316.562 468.714 317.536 468.856 319.245C468.973 320.684 469.065 324.492 468.83 325.764C468.712 326.423 467.563 326.178 467.569 326.793C467.587 327.845 469.176 330.095 469.176 331.548C469.176 332.864 467.852 335.083 468.044 336.095C468.725 339.739 470.687 343.708 470.161 347.592C470.012 348.664 468.522 350.044 468.564 350.38C468.65 351.036 470.098 351.232 470.284 351.673C471.224 353.912 469.504 357.402 469.436 359.596C469.213 366.748 469.845 374.324 469.579 381.445C469.515 383.164 469.513 385.318 469.474 387.554L469.754 390.4L467.01 394.802C464.755 397.631 462.29 400.574 460.193 402.199C459.46 402.765 458.349 401.609 457.891 402.206C457.383 402.867 457.956 403.878 457.788 404.24C456.624 406.748 453.853 412.128 451.433 413.48C450.97 413.736 449.771 413.258 449.597 413.491C449.508 413.607 449.978 414.387 449.765 414.806C447.889 418.504 445.686 420.558 443.022 423.546C437.925 429.273 433.774 437.259 428.201 443.107C426.987 444.381 424.307 443.835 424.177 444.045C423.887 444.503 424.987 445.785 424.644 446.901C423.491 450.602 419.107 453.41 417.655 456.658C416.937 458.262 417.169 461.403 416.512 463.019C415.987 464.31 413.401 466.323 413.768 467.357C413.989 467.983 415.304 469.206 415.217 469.686ZM420.74 416.848C422.86 418.78 422.51 415.339 420.719 415.151C420.315 415.109 420.19 416.347 420.74 416.848ZM451.194 315.467C450.377 315.49 449.561 315.513 448.745 315.536C449.084 315.866 449.424 316.197 449.764 316.527C450.254 316.341 450.745 316.156 451.236 315.97C451.222 315.802 451.208 315.635 451.194 315.467ZM174.816 209.693C174.626 210.089 173.536 209.578 173.135 209.815C171.45 210.798 170.429 210.647 168.785 211.381C166.345 212.468 161.094 218.28 156.562 212.387C156.562 212.387 156.562 212.387 156.562 212.386C156.517 212.329 156.473 212.27 156.429 212.21C155.587 211.07 155.164 209.445 154.265 208.116C153.365 206.787 147.002 198.631 147.386 197.602C147.989 196.172 152.172 196.301 152.671 195.769C153.012 195.405 152.919 194.29 153.316 193.774C154.597 192.111 155.858 192.009 155.75 188.869C157.15 189.491 158.551 190.112 159.951 190.734C160.327 189.657 162.555 190.183 162.955 189.753C163.283 189.399 162.855 188.385 163.218 188.044C163.621 187.656 164.998 188.047 165.694 187.293C166.838 186.062 165.38 183.681 165.953 182.795C166.548 181.877 168.74 182.096 169.187 180.52C169.132 180.177 169.077 179.834 169.021 179.491C168.507 179.016 167.992 178.54 167.477 178.064C167.806 177.405 168.895 178.354 169.394 178.003C169.981 177.591 169.452 176.304 169.838 176.015C170.155 175.779 171.236 176.306 171.601 175.94C172.136 175.411 171.06 174.279 171.201 173.804C171.259 173.616 173.086 171.13 173.212 171.018C174.182 170.194 175.567 171.813 176.484 171.342C179.023 170.03 180.265 166.907 181.931 164.806C182.675 163.868 183.712 163.227 184.837 162.79C186.709 168.218 192.493 169.116 186.103 163.283C187.864 163.458 187.187 161.078 188.392 160.642C189.173 160.361 190.327 160.964 191.203 160.252C192.752 158.982 192.442 154.985 196.597 159.445C197.809 157.164 200.765 157.668 198.171 152.905C198.452 152.276 201.628 153.859 202.431 153.788C203.19 153.72 207.979 151.855 208.668 151.427C209.357 150.999 210.53 150.207 210.782 149.42C211.105 148.439 208.191 143.671 213.356 147.894C214.437 146.399 215.049 146.163 216.813 145.759C217.132 145.686 217.746 146.43 217.885 146.325C218.169 146.106 218.217 145.17 218.671 144.711C219.418 143.958 221.131 145.2 219.149 142.815C219.381 141.98 219.614 141.146 219.847 140.311C220.405 140.637 220.962 140.963 221.519 141.289C221.416 140.547 221.312 139.804 221.209 139.061C223.597 142.882 224.052 139.194 221.812 137.67C223.443 137.586 225.074 137.503 226.705 137.419C229.663 141.575 229.402 136.087 227.503 134.051C227.628 133.961 227.752 133.87 227.877 133.779C229.242 133.962 229.781 133.164 230.671 132.6L235.041 129.889L238.014 130.442C238.415 130.512 238.832 130.644 239.266 130.935C240.825 131.978 240.63 132.46 240.932 134.838C241.328 134.737 241.724 134.635 242.12 134.534C244.675 128.297 243.389 139.357 247.258 134.734C248.025 138.852 250.925 136.965 252.833 135.896C253.054 135.772 253.124 134.991 253.424 134.773C254.156 134.251 255.817 135.402 255.969 132.876C256.512 133.656 257.055 134.436 257.598 135.216C258.13 134.799 258.663 134.382 259.195 133.965C259.258 133.178 259.322 132.391 259.385 131.604C260.155 134.369 261.804 133.47 262.521 134.175C262.663 134.318 262.605 135.406 263.057 135.742C263.585 136.14 264.651 135.906 265.286 136.301C265.645 135.12 266.004 133.94 266.363 132.759C267.605 132.206 267.757 135.415 268.433 135.72C268.555 135.773 270.865 135.737 270.994 135.68C272.049 135.227 271.99 132.5 274.863 133.324C275.375 133.472 275.717 134.443 276.185 134.52C277.01 134.657 279.691 132.745 280.052 130.801C280.854 133.339 283.635 132.562 284.37 133.338C284.591 133.576 284.514 135.143 285.223 135.538C285.798 135.859 287.441 134.737 288.181 135.009C288.966 135.305 289.143 136.642 289.495 136.765C289.829 136.88 290.231 135.846 290.694 135.891C292.139 136.049 293.308 137.865 294.449 137.993C296.1 138.181 297.825 135.165 299.327 133.888C299.654 134.12 299.935 134.822 300.295 134.858C304.745 135.33 309.725 136.33 314.14 137.377C316.19 137.859 320.995 142.551 320.213 135.329C321.038 134.144 326.043 137.449 327.037 137.576C328.031 137.702 328.929 136.494 329.714 136.541C332.085 136.684 333.674 137.742 336.646 136.873C337.415 136.645 338.338 135.202 338.777 135.257C339.305 135.326 339.754 136.834 340.434 136.984C342.054 137.331 345.148 137.107 346.698 137.491C346.981 137.565 346.975 138.855 347.352 139.29C348.819 140.99 350.622 141.004 350.648 136.884C352.502 139.38 354.574 137.419 356.484 137.448C360.52 137.519 367.753 139.087 371.394 137.66C373.69 136.76 373.787 134.919 376.901 136.776C377.592 137.187 378.27 137.721 379.109 138.214C381.075 139.372 382.671 142.921 384.575 138.965C386.762 140.216 388.637 139.616 390.032 143.252C390.302 142.431 390.571 141.609 390.84 140.787C391.121 140.79 391.402 140.793 391.682 140.795C391.702 141.602 391.722 142.409 391.742 143.216C393.723 143.599 396.534 140.525 398.224 140.691C401.057 140.965 408.255 142.854 410.855 144.158C412.234 144.851 412.455 143.145 412.977 146.733C413.317 146.515 413.657 146.297 413.997 146.079C414.261 145.325 414.526 144.571 414.79 143.817C416.625 143.94 418.697 145.319 420.444 145.453C423.626 145.695 428.579 143.974 431.655 145.634C432.427 146.053 433.294 147.726 434.08 147.774C435.223 147.845 435.722 145.23 437.174 145.302C439.677 145.431 444.069 148.885 446.447 148.848C447.154 148.839 447.563 147.885 448.056 147.821C450.122 147.541 451.781 147.76 453.854 146.407C455.731 149.11 455.277 152.357 455.649 155.703C455.931 158.229 456.953 164.113 456.984 166.307C457.006 167.849 456.281 169.769 456.35 171.469C453.735 172.603 452.808 171.036 450.974 168.498C447.213 168.278 443.452 168.058 439.691 167.838C439.427 166.891 439.162 165.943 438.898 164.996C438.898 164.994 438.898 164.992 438.898 164.99C437.546 163.809 436.737 166.124 435.915 166.596C428.042 171.114 413.733 165.862 405.59 164.596C403.835 164.325 397.988 165.082 396.902 163.488C396.621 163.074 396.652 161.65 396.324 161.56C393.272 162.153 390.221 162.745 387.169 163.338C381.224 160.623 374.734 161.91 368.529 161.732C351.741 161.25 335.103 160.98 318.694 159.264C315.523 158.93 311.403 159.653 308.35 158.708C307.076 158.316 306.725 155.996 304.878 157.548C304.912 156.934 304.945 156.32 304.979 155.705C303.429 156.321 302.361 157.635 300.681 157.637C299.266 157.637 295.541 157.416 294.32 157.078C293.685 156.907 294.021 155.782 293.421 155.738C292.391 155.67 290.063 157.069 288.644 156.95C287.36 156.843 285.304 155.342 284.301 155.45C280.687 155.83 276.648 157.461 272.901 156.62C271.867 156.384 270.644 154.786 270.313 154.8C269.665 154.832 269.353 156.259 268.907 156.408C266.643 157.162 263.38 155.163 261.243 154.915C254.281 154.108 246.833 154.118 239.904 153.271C238.801 153.136 237.511 153.012 236.134 152.88L244.396 150.451C241.114 152.912 237.22 155.827 234.311 157.036C233.472 157.385 232.691 155.985 232.107 156.434C231.46 156.932 231.762 158.051 231.512 158.352C229.787 160.443 225.823 164.857 223.178 165.51C222.673 165.633 221.643 164.858 221.42 165.035C221.306 165.123 221.565 165.993 221.259 166.337C218.562 169.378 215.954 170.76 212.676 172.914C206.402 177.043 200.483 183.584 193.724 187.704C192.252 188.602 189.822 187.37 189.646 187.537C189.256 187.898 189.995 189.415 189.395 190.392C187.388 193.628 182.51 195.154 180.328 197.876C179.25 199.22 178.705 202.286 177.682 203.658C176.865 204.755 173.9 205.996 173.999 207.082C174.057 207.74 175.017 209.257 174.816 209.693ZM192.997 160.613C194.553 163.021 195.058 159.637 193.39 158.984C193.015 158.837 192.593 159.988 192.997 160.613ZM305.843 140.346C305.889 139.53 305.934 138.715 305.98 137.9C305.629 138.211 305.279 138.523 304.928 138.834C305.068 139.338 305.208 139.843 305.348 140.347C305.513 140.347 305.678 140.346 305.843 140.346ZM135.524 230.089C135.326 229.515 136.397 228.704 136.453 228.026C136.7 225.187 137.442 224.135 137.863 221.566C138.488 217.757 137.081 206.454 144.515 206.453C144.516 206.453 144.516 206.453 144.516 206.453C144.589 206.453 144.663 206.454 144.737 206.457C146.153 206.496 147.7 207.458 149.301 207.6C150.904 207.743 161.248 207.636 161.829 209.002C162.596 210.982 159.943 215.731 160.061 216.787C160.142 217.509 161.082 218.398 161.249 219.321C161.787 222.297 161.1 223.855 163.654 226.536C162.308 227.609 160.962 228.682 159.616 229.754C160.24 231.154 158.465 233.275 158.562 234.125C158.643 234.823 159.707 235.232 159.757 235.959C159.818 236.774 158.669 238.026 158.842 239.509C159.121 241.941 161.898 242.373 162.25 243.832C162.615 245.345 161.106 247.698 162.083 249.628C162.389 249.87 162.694 250.112 163 250.355C163.69 250.181 164.381 250.008 165.072 249.834C165.394 250.806 163.978 251.225 163.952 252.118C163.921 253.169 165.264 253.705 165.257 254.413C165.251 254.992 164.175 255.778 164.242 256.529C164.335 257.625 165.889 257.385 166.18 257.975C166.293 258.21 167.151 262.558 167.163 262.803C167.224 264.669 165.097 264.831 164.911 266.319C164.404 270.445 166.123 274.681 166.772 278.498C167.063 280.202 166.939 281.98 166.599 283.679C161.155 281.003 156.918 286.926 165.437 284.711C164.225 286.602 166.524 287.942 166.136 289.734C165.882 290.894 164.701 291.696 164.732 293.351C164.794 296.289 168.152 299.501 162.083 300.346C163.153 303.794 160.952 306.781 166.309 308.023C166.636 308.912 163.445 311.191 163.012 312.188C162.603 313.131 161.163 320.368 161.082 321.551C161.002 322.735 160.914 324.807 161.384 325.805C161.966 327.057 167.522 327.932 161.026 330.163C161.551 332.755 161.365 333.679 160.611 336.091C160.474 336.528 159.51 336.577 159.509 336.832C159.509 337.357 160.222 338.251 160.309 339.189C160.451 340.732 158.422 341.612 161.521 341.44C162.041 342.457 162.561 343.474 163.08 344.491C162.482 344.847 161.884 345.204 161.286 345.561C161.937 346.104 162.589 346.648 163.241 347.192C158.756 346.553 161.403 350.38 163.976 349.137C163.049 351.108 162.121 353.08 161.193 355.051C156.095 354.776 160.605 359.379 163.376 358.991C163.372 359.217 163.368 359.443 163.364 359.668C162.009 361.643 163.117 363.456 162.208 365.863C161.299 368.27 160.802 368.044 158.458 368.776C158.592 369.342 158.726 369.908 158.86 370.475C165.288 373.447 154.159 372.921 159.09 378.01C155.05 379.636 157.172 383.644 158.397 386.301C158.54 386.611 159.324 386.616 159.565 387.028C160.147 388.035 159.139 390.604 161.668 390.516C160.936 391.405 160.205 392.295 159.473 393.184C159.933 393.911 160.393 394.638 160.853 395.365C161.642 395.361 162.432 395.358 163.221 395.354C160.53 396.818 161.564 399.118 160.921 400.252C160.791 400.478 159.701 400.527 159.404 401.229C159.052 402.049 159.374 403.578 159.034 404.555C160.24 404.935 161.447 405.315 162.653 405.695C163.308 407.443 160.123 408.058 159.876 409.084C159.833 409.269 160.061 412.641 160.129 412.823C160.668 414.31 163.381 413.889 162.8 418.19C162.695 418.956 161.756 419.576 161.719 420.268C161.651 421.491 163.78 425.176 165.747 425.466C163.285 426.95 164.291 430.919 163.58 432.088C163.361 432.441 161.793 432.52 161.459 433.605C161.187 434.484 162.442 436.748 162.232 437.863C162.003 439.047 160.686 439.47 160.593 440C160.506 440.501 161.57 440.963 161.564 441.646C161.529 443.607 160.077 445.398 159.821 446.984L152.832 439.208C152.967 439.245 153.1 439.272 153.234 439.289C155.651 439.598 158.126 436.695 160.302 435.522C160.783 435.779 161.205 436.504 161.732 436.567C168.247 437.363 175.546 438.728 182.018 440.099C185.024 440.732 192.124 445.791 190.866 438.483C192.055 437.354 199.426 441.035 200.882 441.235C202.337 441.433 203.631 440.286 204.78 440.39C208.249 440.705 210.589 441.882 214.923 441.226C216.042 441.053 217.37 439.672 218.013 439.758C218.787 439.866 219.467 441.412 220.463 441.612C222.838 442.078 227.358 442.077 229.632 442.576C230.047 442.67 230.057 443.965 230.615 444.429C232.788 446.242 235.424 446.387 235.398 442.253C238.148 444.892 241.148 443.074 243.941 443.242C249.845 443.606 260.446 445.705 265.748 444.537C269.091 443.799 269.205 441.959 273.788 444.048C274.805 444.511 275.804 445.097 277.039 445.652C279.932 446.957 282.321 450.636 285.044 446.802C288.261 448.216 290.994 447.75 293.092 451.502C293.473 450.697 293.853 449.892 294.234 449.086C294.645 449.109 295.055 449.132 295.466 449.155C295.508 449.967 295.55 450.778 295.592 451.59C298.494 452.117 302.556 449.236 305.03 449.525C309.178 450.006 319.734 452.424 323.555 453.922C325.584 454.717 325.88 453.021 326.7 456.661C327.194 456.467 327.687 456.272 328.181 456.078C328.556 455.34 328.931 454.603 329.305 453.865C331.99 454.121 335.043 455.656 337.598 455.917C342.255 456.391 349.471 455.022 353.997 456.912C355.131 457.388 356.427 459.131 357.576 459.236C359.249 459.39 359.937 456.802 362.062 456.98C365.724 457.291 372.2 461.076 375.678 461.212C376.711 461.254 377.295 460.326 378.014 460.297C381.032 460.166 383.461 460.507 386.471 459.298C389.258 462.147 388.646 465.375 389.242 468.761C389.694 471.317 391.281 477.298 391.361 479.503C391.418 481.052 390.388 482.927 390.516 484.639C386.709 485.588 385.328 483.947 382.607 481.266C377.104 480.772 371.601 480.279 366.097 479.785C365.696 478.815 365.294 477.845 364.892 476.875C364.893 476.873 364.893 476.871 364.893 476.869C362.897 475.585 361.75 477.85 360.555 478.264C349.114 482.229 328.107 475.919 316.178 474.057C313.607 473.658 305.07 473.994 303.456 472.315C303.039 471.878 303.062 470.451 302.581 470.338C298.127 470.711 293.674 471.085 289.221 471.458C280.484 468.302 271.014 469.123 261.938 468.494C237.38 466.792 213.045 465.315 189.022 462.402C184.38 461.836 178.366 462.264 173.887 461.094C172.017 460.607 171.469 458.253 168.792 459.677C168.831 459.063 168.87 458.449 168.91 457.835C166.653 458.34 165.112 459.582 162.655 459.462C160.586 459.359 155.136 458.868 153.344 458.439C152.414 458.222 152.888 457.117 152.008 457.028C151.71 457 151.339 457.026 150.919 457.084L142.513 456.762L141.843 446.984C141.429 445.315 140.407 442.903 140.407 441.228C140.407 439.337 141.73 436.149 141.539 434.695C140.858 429.459 138.896 423.755 139.422 418.175C139.571 416.634 141.061 414.651 141.019 414.169C140.932 413.226 139.485 412.945 139.299 412.311C138.359 409.094 140.079 404.079 140.147 400.925C140.37 390.649 139.738 379.763 140.004 369.531C140.171 363.067 139.916 352.325 141.005 346.357C141.24 345.07 142.826 345.413 142.826 344.332C142.825 343.134 141.754 342.485 141.668 341.925C141.061 338.049 139.978 329.493 141.073 325.834C141.284 325.137 142.526 324.631 142.522 324.214C142.522 324.003 141.674 323.526 141.587 322.862C140.82 317.007 141.314 312.738 141.605 307.001C142.156 296.013 140.578 283.281 141.432 271.738C141.618 269.223 144.075 267.498 144.05 267.145C144.001 266.369 142.348 265.872 141.939 264.3C140.597 259.074 142.361 252.036 141.533 247.065C141.124 244.609 139.026 241.235 138.562 238.818C138.191 236.888 139.014 232.329 138.092 231.474C137.536 230.953 135.748 230.712 135.524 230.089ZM163.352 295.115C160.494 294.771 162.869 298.385 164.403 297.029C164.749 296.724 164.094 295.204 163.352 295.115ZM169.932 442.478C169.986 441.663 170.04 440.847 170.094 440.032C169.586 440.319 169.078 440.607 168.57 440.894C168.783 441.41 168.996 441.927 169.209 442.443C169.45 442.455 169.691 442.466 169.932 442.478Z" fill="white"/>
<path d="M392.933 225.326L449.552 169.109L462 383.94L392.933 467.062V225.326Z" fill="white"/>
</svg>
